<?xml version="1.0" standalone="no"?>
<!DOCTYPE svg PUBLIC "-//W3C//DTD SVG 20010904//EN"
 "http://www.w3.org/TR/2001/REC-SVG-20010904/DTD/svg10.dtd">
<svg version="1.0" xmlns="http://www.w3.org/2000/svg"
 width="256.000000pt" height="256.000000pt" viewBox="0 0 256.000000 256.000000"
 preserveAspectRatio="xMidYMid meet">
<metadata>
Created by potrace 1.14, written by Peter Selinger 2001-2017
</metadata>
<g transform="translate(0.000000,256.000000) scale(0.100000,-0.100000)"
fill="#000000" stroke="none">
<path d="M649 2119 c-1 -2 -3 -260 -4 -573 l-1 -569 63 -64 63 -64 1 63 c0 35
0 294 0 576 l0 513 -60 61 c-34 33 -62 59 -62 57z"/>
<path d="M1847 2059 l-59 -58 1 -548 c0 -301 0 -561 1 -577 0 -29 1 -28 63 35
l62 64 1 568 c0 313 -2 570 -5 572 -3 1 -32 -23 -64 -56z"/>
<path d="M870 1339 l0 -576 63 -63 62 -64 3 575 2 574 -65 65 -65 65 0 -576z"/>
<path d="M1155 1864 l-60 -45 0 -646 0 -646 52 -38 c28 -21 57 -40 64 -41 10
-2 13 144 13 720 1 398 -1 728 -4 732 -3 5 -32 -12 -65 -36z"/>
<path d="M1339 1903 c-5 -33 -3 -1447 2 -1455 8 -12 117 69 122 91 3 9 4 300
3 648 -1 619 -2 633 -21 647 -74 56 -105 76 -106 69z"/>
<path d="M1622 1847 l-62 -63 2 -574 3 -574 63 64 62 63 0 574 c0 315 -1 573
-3 573 -1 0 -31 -28 -65 -63z"/>
<path d="M414 1471 l1 -279 63 -66 c59 -62 62 -64 63 -38 0 15 0 143 0 286 l1
258 -61 59 c-33 32 -62 59 -64 59 -2 0 -4 -126 -3 -279z"/>
<path d="M2077 1691 l-58 -58 -1 -277 c0 -153 2 -280 5 -283 3 -3 32 23 64 57
l58 63 1 278 c1 154 -2 279 -5 279 -3 -1 -32 -27 -64 -59z"/>
<path d="M240 1453 l-59 -58 64 -67 65 -68 0 125 c0 69 -3 125 -6 125 -3 0
-32 -26 -64 -57z"/>
<path d="M2250 1385 l0 -125 65 68 65 67 -60 58 c-33 31 -62 57 -65 57 -3 0
-5 -56 -5 -125z"/>
</g>
</svg>
